PathFileType	4	(X/Y/Z)	Walk3.trc
DataRate	CameraRate	NumFrames	NumMarkers	Units	OrigDataRate	OrigDataStartFrame	OrigNumFrames
200.000000	200.000000	6	56	mm	200.000000	568	604
Frame#	Times		RFA1		RUA1		RACR1		LFA1		RBHD		RASI		C7		RTH2		RTH3		RElbow		LElbowM		RTB1		RTB3		RWRU		RTH4		RLFC		RTH1		LACR1		RTB2		RMT1		RCAR		RMT5		RTB4		LElbow		LTH2		LTH3		LTH4		LWRU		LPSI		RPSI		LTB1		LLFC		T10		RWRR		LTH1		LBHD		LWRR		LTB3		LTB2		LFHD		LMT1		RBack		LCAL		LTB4		LLMAL		CLAV		LMMAL		RElbowM		LToe		LMT5		RMMAL		RLMAL		LCAR		LUA1		RCAL		RToe
			X1	Y1	Z1	X2	Y2	Z2	X3	Y3	Z3	X4	Y4	Z4	X5	Y5	Z5	X6	Y6	Z6	X7	Y7	Z7	X8	Y8	Z8	X9	Y9	Z9	X10	Y10	Z10	X11	Y11	Z11	X12	Y12	Z12	X13	Y13	Z13	X14	Y14	Z14	X15	Y15	Z15	X16	Y16	Z16	X17	Y17	Z17	X18	Y18	Z18	X19	Y19	Z19	X20	Y20	Z20	X21	Y21	Z21	X22	Y22	Z22	X23	Y23	Z23	X24	Y24	Z24	X25	Y25	Z25	X26	Y26	Z26	X27	Y27	Z27	X28	Y28	Z28	X29	Y29	Z29	X30	Y30	Z30	X31	Y31	Z31	X32	Y32	Z32	X33	Y33	Z33	X34	Y34	Z34	X35	Y35	Z35	X36	Y36	Z36	X37	Y37	Z37	X38	Y38	Z38	X39	Y39	Z39	X40	Y40	Z40	X41	Y41	Z41	X42	Y42	Z42	X43	Y43	Z43	X44	Y44	Z44	X45	Y45	Z45	X46	Y46	Z46	X47	Y47	Z47	X48	Y48	Z48	X49	Y49	Z49	X50	Y50	Z50	X51	Y51	Z51	X52	Y52	Z52	X53	Y53	Z53	X54	Y54	Z54	X55	Y55	Z55	X56	Y56	Z56

568	2.84	1224.8	958.07	582.75	1174.4	1213.9	524.56	1195.2	1401.9	437.66	1123.7	1010	-31.05	1155.3	1584.8	378.3	1212.4	958.03	415.15	1120.9	1454.2	299.84	1225.4	660.59	414.45	1157.1	562.15	432.09	1145.8	1085.3	561.84	1019.7	1139.9	87.983	1172.6	364.56	325.91	1135.9	177.78	318.15	1253	830.94	576.41	1158.8	649.82	447.54	1153.7	457.26	411.98	1157.4	747.62	461.4	1148.6	1451.4	119.25	1149.2	268.6	395.88	1213.3	36.583	269.65	1311.2	795.3	584.74	1188	29.28	360.4	1157.6	273.03	323.86	1034.2	1140.5	9.9554	1307.2	703.94	99.082	1281	591.02	87.145	1240.1	670.78	76.77	1113.4	891.35	-27.023	1029.6	973.09	212.51	1029	978.14	317.24	1325.4	385.71	161.14	1313.6	488.14	102.67	1023.7	1145.9	272.81	1318.6	851.94	539.51	1198.7	759.51	75.625	1151.6	1600.4	239.86	1189	909.67	4.6883	1214.1	238.22	177.85	1237.1	328.86	107.1	1310.2	1600.4	263.58	1217.5	64.118	220.52	1056.4	1354.9	395.96	1033.6	144.79	212.83	1267.6	312.82	170.45	1091.4	167.02	160.62	1254.6	1374.6	271.62	1135	165.86	242.07	1123.8	1052.5	471.04	1256.9	60.39	196.34	1188.1	70.174	142.83	1090.5	96.569	269.58	1066.8	79.667	356.92	1185.9	854.47	-38.581	1080.2	1265.6	21.95	1012.3	34.49	318.56	1267.3	26.281	288.49
569	2.845	1235.6	959.6	583.42	1181.3	1214.3	525.09	1201.4	1402.2	437.7	1127	1009.3	-30.874	1161.5	1585.1	377.63	1218.4	957.54	415.36	1127.1	1454.1	299.73	1228.2	659.69	414.94	1159.9	561.85	432.11	1154	1085.6	562.51	1024.4	1139.6	88.778	1174	364.32	325.91	1136.6	177.7	317.89	1266.4	833.1	576.67	1162.5	649.38	447.46	1155.4	457.14	412.17	1161.9	747.54	461.64	1154.5	1450.9	119.16	1150.3	268.39	395.9	1213.4	36.704	269.84	1325.3	798.71	584.75	1188.4	28.162	358.55	1158.8	272.95	323.63	1038.5	1140.3	10.717	1314.6	705.2	99.075	1289.4	592.02	87.108	1247.9	671.59	76.398	1116.2	890.79	-26.719	1035.6	973.34	212.12	1035.1	978.08	317.2	1337.1	387.21	161.33	1322.5	489.07	102.71	1030	1145.6	272.92	1331.5	855.71	539.92	1205.8	759.97	75.306	1157.7	1600.1	239.36	1191.6	908.7	4.826	1230.3	236.39	178.24	1250.5	327.76	107.27	1314.2	1600.2	263.95	1239.6	62.651	221.05	1062.5	1354.8	396.19	1052.8	137.58	213.94	1281.7	312.74	170.61	1109.1	161.67	161.59	1260.7	1374.3	271.65	1153.6	161.67	242.65	1132.8	1052.3	471.97	1278.7	59.923	195.7	1209.5	67.596	142.97	1089.6	96.33	269.88	1067.1	79.882	356.92	1188.5	853.47	-38.669	1085.1	1265.3	22.376	1012.4	34.584	318.55	1267.6	25.703	288.07
570	2.85	1246.3	961.09	584.06	1188.2	1214.7	525.58	1207.5	1402.3	437.53	1130.5	1008.6	-30.588	1167.7	1585.2	377.14	1224.6	957.03	415.53	1133.3	1453.7	299.76	1231.3	658.92	415.34	1162.9	561.58	432.38	1162.3	1085.7	563.39	1029.3	1139.2	89.373	1175.4	363.95	325.81	1137.3	177.65	317.74	1279.6	835.4	577.15	1166.3	648.89	447.29	1157.5	456.87	412.21	1166.3	747.55	461.77	1160.5	1450.3	119.06	1151.3	268.18	395.98	1213.5	36.633	269.91	1339.3	802.12	584.76	1188	27.105	357.33	1160	272.8	323.56	1043	1140.3	10.947	1321.9	706.34	99.034	1297.6	592.88	87.132	1255.6	672.16	76.376	1119	890.14	-26.338	1042	973.27	211.7	1041.2	977.75	316.85	1348.5	388.52	161.5	1328.9	489.47	103.51	1036	1145.3	272.84	1344.4	859.57	540.2	1213.4	760.3	74.873	1163.8	1599.8	238.94	1194.2	907.64	5.009	1246.8	234.54	178.68	1263.9	326.52	107.59	1318	1600	264.39	1261.5	61.483	221.14	1068.7	1354.6	396.21	1072.3	130.13	214.8	1295.7	312.41	170.86	1127.5	155.99	162.4	1266.6	1374.1	271.68	1172.2	157.24	243.39	1141.8	1051.9	473.01	1300.4	59.315	195.19	1230.9	65.187	143.22	1088.8	95.799	271.33	1067.3	80.047	356.9	1191.2	852.52	-38.818	1090	1264.9	22.837	1012.4	34.68	318.47	1267.8	25.658	288.19
571	2.855	1256.9	962.58	584.8	1194.9	1215	526.12	1213.6	1402.2	437.61	1133.9	1007.7	-30.364	1173.9	1585	376.69	1231	956.45	415.48	1139.6	1453.3	299.69	1234.7	658.26	415.63	1166	561.51	432.54	1170.6	1085.7	564.53	1034.4	1139	89.857	1176.9	363.66	325.83	1137.8	177.54	317.68	1293	837.2	576.14	1170.2	648.37	447.14	1159.3	456.62	412.35	1170.9	747.41	461.63	1166.4	1449.8	118.97	1152.5	267.95	395.92	1213.6	36.478	269.83	1353.1	805.64	584.89	1187.5	26.422	356.74	1160.8	272.49	323.61	1047.6	1140.2	11.15	1329.2	707.3	99.158	1305.7	593.68	87.231	1263.2	672.66	76.101	1122	889.22	-25.857	1048.2	973.07	211.45	1047.2	977.6	316.61	1359.7	389.84	161.62	1335.9	489.97	104.49	1042.2	1145	272.59	1356.9	863.35	540.7	1220.5	760.54	74.633	1169.8	1599.3	238.52	1196.7	906.51	5.2017	1262.7	232.67	178.96	1277.1	325.16	107.84	1321.8	1599.8	264.91	1283.3	60.268	221.07	1074.9	1354.4	396.17	1092	122.6	215.6	1309.4	312.25	170.94	1146.4	150.42	163.16	1272.7	1373.8	271.78	1191.3	152.92	243.98	1150.5	1051.6	474.11	1322.5	59.026	194.46	1252.2	63.195	143.22	1089.1	95.268	271.18	1067.6	80.227	356.95	1193.8	851.28	-39.094	1094.9	1264.5	23.254	1012.5	34.808	318.37	1268	25.759	288.71
572	2.86	1267.4	964.67	585.95	1201.7	1215.2	526.68	1219.8	1402	437.47	1137.5	1006.8	-30.134	1180	1584.7	376	1237.2	955.82	415.51	1145.9	1452.9	299.63	1238.4	657.63	415.79	1169.2	561.21	432.62	1178.8	1085.9	565.63	1039.4	1138.6	90.576	1178.3	363.39	325.9	1138.1	177.21	317.85	1305.7	838.54	575.03	1174.1	647.92	446.99	1161.5	456.31	412.42	1175.7	747.27	461.56	1172.5	1449	118.83	1153.8	267.74	395.8	1213.6	36.269	269.66	1366.8	809.24	585.04	1187.2	26.29	356.69	1161.9	272.23	323.59	1052	1139.9	11.49	1336.6	708.12	99.095	1313.8	594.36	87.262	1271.2	673.12	75.838	1124.8	888.21	-25.307	1054.5	972.54	211.29	1053.1	977.24	316.33	1370.9	391.06	161.64	1344.8	490.66	104.68	1048.5	1144.7	272.41	1369.5	867.2	541	1227.3	760.57	74.432	1176	1598.7	237.94	1199.2	905.3	5.3681	1278.8	230.75	179.32	1290.4	323.82	108.03	1325.5	1599.7	265.49	1305.5	59.311	220.72	1081.2	1354.2	396.22	1111.2	115.02	217.32	1323.1	311.83	171.15	1165.6	144.93	163.81	1278.8	1373.3	271.7	1210.5	148.77	244.37	1159.4	1051.1	475.01	1344.5	58.757	194.01	1273.8	61.055	143.1	1089.6	95.257	270.49	1067.9	80.457	357.12	1196.5	850.11	-39.355	1100.2	1263.9	23.559	1012.6	34.946	318.34	1268.5	25.763	289.36
573	2.865	1276.8	965.98	587.02	1208.4	1215.3	527.23	1226.1	1401.9	437.35	1141.2	1005.9	-29.921	1186	1584.4	375.48	1243.1	955.14	415.69	1152.1	1452.5	299.63	1242.2	656.95	415.87	1172.4	560.81	432.65	1187	1086.1	566.4	1044.3	1138.1	91.236	1179.9	363	325.75	1138.9	177.1	317.75	1318.2	841	575.09	1178	647.58	447.04	1163.6	455.92	412.57	1180.3	746.96	461.58	1178.4	1448.2	118.84	1154.9	267.54	395.73	1213.6	35.986	269.46	1380.3	812.75	585.19	1187.4	27.464	358.1	1163	271.94	323.54	1056.9	1139.4	12.482	1343.8	708.83	99.233	1321.7	594.98	87.316	1278.8	673.47	75.616	1127.7	887.2	-24.79	1060.7	972.07	211.35	1059.1	977.19	316.16	1381.9	392.18	161.63	1354.3	491.32	104.56	1054.9	1144.5	272.12	1381.9	871.08	541.42	1234.2	760.67	74.175	1182.1	1598.1	237.37	1201.9	904.03	5.4753	1294.9	228.87	179.61	1303.5	322.43	108.24	1329.2	1599.5	266.15	1327.4	58.338	220.52	1087.5	1353.8	396.19	1132.6	107.99	217.63	1336.6	311.4	171.3	1184.7	139.31	164.48	1285.2	1372.7	271.67	1230.1	144.71	244.75	1168.5	1050.8	475.94	1366.5	58.943	193.87	1295.4	58.814	143.34	1089.9	95.654	269.86	1068.2	80.689	357.27	1199.3	848.87	-39.599	1105.3	1263.2	24.032	1012.6	35.08	318.32	1269.1	25.729	289.85
